<!-- Generator: Adobe Illustrator 19.1.0, SVG Export Plug-In  -->
<svg version="1.1"
	 xmlns="http://www.w3.org/2000/svg" xmlns:xlink="http://www.w3.org/1999/xlink" xmlns:a="http://ns.adobe.com/AdobeSVGViewerExtensions/3.0/"
	 x="0px" y="0px" width="330.942px" height="62.099px" viewBox="0 0 330.942 62.099"
	 style="enable-background:new 0 0 330.942 62.099;" xml:space="preserve">
<style type="text/css">
	.st0{fill:#E6E7E8;}
	.st1{fill:#F58220;}
	.st2{fill:#33333E;}
	.st3{fill:#979797;}
</style>
<defs>
</defs>
<g>
	<g>
		<polygon class="st0" points="1.645,11.156 1.887,48.242 25.157,56.484 38.004,51.636 29.197,33.214 13.764,15.196 		"/>
	</g>
	<polygon class="st1" points="47.842,11.839 23.313,2.521 1.745,10.199 22.845,24.473 37.975,51.17 48.407,47.702 48.061,11.623 	
		"/>
	<path class="st2" d="M48.143,9.111C42.177,6.893,25.004,0,25.004,0S7.642,7.001,1.851,9.166C0.739,9.583,0,10.643,0,11.83v35.203
		c0,1.319,0.823,2.498,2.061,2.953l22.943,8.906l22.923-8.851c1.336-0.488,2.225-1.758,2.225-3.18V12.002
		C50.152,10.714,49.352,9.56,48.143,9.111 M46.57,46.909l-17.972,5.812c-2.858,0.701-4.697,0.645-7.187,0L3.645,46.975v-34.79
		l15.286-5.498c3.938-1.342,8.208-1.342,12.146,0l15.492,5.572V46.909z"/>
	<path class="st2" d="M43.949,62.099C43.771,62.017,25.483,1.646,0.524,11.397c0,0,27.421,16.146,39.888,50.702H43.949z"/>
</g>
<g>
	<path class="st0" d="M151.761,16.076h-0.889h-1.038l-11.84,27.905h3.84l3.77-8.863h11.466l3.77,8.863h3.84l-11.842-27.905H151.761z
		 M147.11,31.665l4.213-10.087l4.236,10.087H147.11z"/>
	<path class="st0" d="M129.826,33.782c0,2.349,0,3.645-1.312,5.355c-0.815,1.096-2.44,1.833-4.043,1.833
		c-1.663,0-3.331-0.739-4.157-1.847c-1.3-1.696-1.3-2.99-1.3-5.341V16.076h-3.554v17.706c0,2.218,0,6.343,3.537,8.866
		c1.554,1.144,3.474,1.773,5.404,1.773c1.955,0,3.884-0.628,5.423-1.763c3.556-2.534,3.556-6.659,3.556-8.877V16.076h-3.556V33.782z
		"/>
	<path class="st0" d="M108.066,29.636c0-7.996-6.505-14.501-14.501-14.501s-14.501,6.505-14.501,14.501
		c0,7.995,6.505,14.5,14.501,14.5c3.184,0,6.298-1.058,8.816-2.986l4.805,2.814h6.524l-8.735-5.38
		C106.973,36.037,108.066,32.887,108.066,29.636 M96.222,33.437h-7.121l9.908,5.729c-0.379,0.216-0.772,0.411-1.173,0.582
		c-1.353,0.572-2.79,0.862-4.272,0.862c-1.482,0-2.919-0.29-4.271-0.862c-1.306-0.553-2.48-1.345-3.49-2.353
		c-1.01-1.011-1.801-2.185-2.352-3.489c-0.572-1.353-0.862-2.789-0.862-4.271c0-1.482,0.29-2.919,0.862-4.271
		c0.552-1.307,1.344-2.481,2.352-3.488c1.011-1.01,2.185-1.802,3.489-2.354c1.352-0.571,2.79-0.861,4.272-0.861
		c1.481,0,2.918,0.29,4.272,0.861c1.307,0.553,2.481,1.345,3.488,2.353c1.009,1.009,1.801,2.183,2.353,3.489
		c0.571,1.351,0.861,2.788,0.861,4.271c0,1.483-0.29,2.92-0.861,4.271c-0.443,1.046-1.04,2.009-1.778,2.869L96.222,33.437z"/>
	<path class="st0" d="M299.062,28.02c1.633-1.492,2.236-3.621,2.236-5.242c0-2.17-0.772-4.02-2.232-5.347
		c-1.303-1.181-3.047-1.83-4.91-1.83c-1.716,0-3.434,0.635-4.715,1.743c-1.48,1.28-2.816,3.085-2.948,5.222l-0.08,1.344h4.04
		l0.077-1.185c0.174-2.684,2.116-3.638,3.727-3.638c2.086,0,3.486,1.469,3.486,3.657c0,0.125-0.018,1.235-0.644,2.175
		c-0.686,1.028-1.906,1.55-3.624,1.55h-2.592v3.453h2.625c4.328,0,5.9,3.323,5.9,5.557c0,2.73-1.84,5.492-5.355,5.492
		c-2.552,0-5.347-1.773-5.458-5.662l-0.032-1.232h-4.014l0.007,1.276c0.018,2.622,1.021,4.991,2.824,6.67
		c1.636,1.525,4.339,2.399,6.571,2.399c5.305,0,9.011-3.761,9.011-9.147C302.961,34.448,302.764,30.424,299.062,28.02"/>
	<polygon class="st0" points="263.643,38.194 252.822,16.076 249.134,16.076 249.134,43.98 252.687,43.98 252.687,23.724 
		262.547,43.98 264.711,43.98 274.537,23.739 274.537,43.98 278.089,43.98 278.089,16.076 274.435,16.076 	"/>
	<path class="st0" d="M317.006,16.076h-8.365V43.98h8.365c8.726,0,13.936-5.222,13.936-13.969
		C330.942,21.285,325.732,16.076,317.006,16.076 M312.196,19.53h4.81c6.694,0,10.381,3.747,10.381,10.551
		c0,6.542-3.881,10.448-10.381,10.448h-4.81V19.53z"/>
	<polygon class="st0" points="200.221,19.53 207.047,19.53 207.047,43.98 210.601,43.98 210.601,19.53 216.458,19.53 
		216.458,16.076 200.221,16.076 	"/>
	<path class="st0" d="M238.141,33.782c0,2.351,0,3.645-1.312,5.355c-0.815,1.096-2.44,1.833-4.043,1.833
		c-1.663,0-3.33-0.739-4.155-1.847c-1.3-1.696-1.3-2.99-1.3-5.341V16.076h-3.556v17.706c0,2.218,0,6.343,3.539,8.866
		c1.555,1.144,3.474,1.773,5.406,1.773c1.953,0,3.881-0.628,5.422-1.763c3.554-2.534,3.554-6.659,3.554-8.877V16.076h-3.554V33.782z
		"/>
	<polygon class="st0" points="189.412,37.507 174.046,16.076 170.598,16.076 170.598,43.98 174.154,43.98 174.154,22.213 
		189.759,43.98 192.969,43.98 192.969,16.076 189.412,16.076 	"/>
	<polygon class="st3" points="239.758,53.878 237.955,53.878 237.955,53.048 242.462,53.048 242.462,53.878 240.659,53.878 
		240.659,61.943 239.758,61.943 	"/>
	<polygon class="st3" points="244.422,53.048 248.593,53.048 248.593,53.878 245.324,53.878 245.324,56.979 248.593,56.979 
		248.593,57.808 245.324,57.808 245.324,61.114 248.593,61.114 248.593,61.943 244.422,61.943 	"/>
	<path class="st3" d="M256.503,59.047c0,1.539-0.9,3.053-2.776,3.053c-1.899,0-3.09-1.598-3.09-4.604
		c0-2.813,1.046-4.604,3.09-4.604c1.876,0,2.789,1.562,2.776,3.245h-0.889c-0.024-1.166-0.481-2.404-1.839-2.404
		c-1.551,0-2.212,1.503-2.212,3.847c0,2.524,0.937,3.678,2.212,3.678c1.37,0,1.791-1.141,1.839-2.211H256.503z"/>
	<polygon class="st3" points="258.56,61.943 258.56,53.048 259.461,53.048 259.461,56.979 262.623,56.979 262.623,53.048 
		263.536,53.048 263.536,61.943 262.623,61.943 262.623,57.808 259.461,57.808 259.461,61.943 	"/>
	<polygon class="st3" points="270.762,60.465 270.762,53.048 271.579,53.048 271.579,61.943 270.569,61.943 266.891,54.347 
		266.891,61.943 266.074,61.943 266.074,53.048 267.155,53.048 	"/>
	<path class="st3" d="M273.756,57.483c0-2.609,1.106-4.591,3.233-4.591c2.139,0,3.233,1.983,3.233,4.604
		c0,2.285-0.902,4.604-3.233,4.604c-2.128,0-3.233-1.983-3.233-4.604V57.483z M274.681,57.508c0,2.428,0.878,3.774,2.308,3.774
		c1.43,0,2.32-1.346,2.32-3.786c0-2.44-0.89-3.786-2.32-3.786c-1.431,0-2.308,1.346-2.308,3.786V57.508z"/>
	<polygon class="st3" points="282.423,53.048 283.325,53.048 283.325,61.114 286.161,61.114 286.161,61.943 282.423,61.943 	"/>
	<path class="st3" d="M287.244,57.483c0-2.609,1.106-4.591,3.234-4.591c2.14,0,3.233,1.983,3.233,4.604
		c0,2.285-0.901,4.604-3.233,4.604c-2.128,0-3.234-1.983-3.234-4.604V57.483z M288.17,57.508c0,2.428,0.877,3.774,2.307,3.774
		c1.431,0,2.32-1.346,2.32-3.786c0-2.44-0.889-3.786-2.32-3.786c-1.431,0-2.307,1.346-2.307,3.786V57.508z"/>
	<path class="st3" d="M300.888,55.993c-0.012-0.42-0.156-0.973-0.397-1.37c-0.312-0.517-0.793-0.914-1.623-0.914
		c-1.454,0-2.428,1.298-2.428,3.786c0,2.645,1.045,3.786,2.428,3.786c0.746,0,1.371-0.312,1.743-1.045
		c0.325-0.65,0.384-1.31,0.384-2.02h-2.5v-0.818h3.426c0,0.397,0,0.878-0.024,1.311c-0.061,1.514-0.842,3.389-3.03,3.389
		c-2.284,0-3.353-1.947-3.353-4.604c0-2.765,1.286-4.604,3.353-4.604c1.863,0,2.825,1.43,2.921,3.101H300.888z"/>
	<polygon class="st3" points="305.577,58.71 303.293,53.048 304.231,53.048 306.034,57.844 307.825,53.048 308.763,53.048 
		306.479,58.71 306.479,61.943 305.577,61.943 	"/>
	<rect x="308.646" y="60.669" class="st3" width="0.817" height="1.274"/>
	<path class="st3" d="M167.188,59.491c0.108,1.383,0.926,1.815,1.599,1.815c0.95,0,1.683-0.636,1.683-1.731
		c0-1.31-1.106-1.598-1.983-1.887c-0.757-0.264-2.031-0.709-2.031-2.307c-0.012-1.563,0.962-2.501,2.344-2.501
		c1.322,0,2.175,0.686,2.379,2.26h-0.865c-0.084-0.662-0.397-1.491-1.49-1.491c-0.901,0-1.454,0.65-1.454,1.576
		c0,1.167,0.889,1.442,2.031,1.815c0.686,0.241,1.984,0.721,1.984,2.487c0,1.576-1.13,2.573-2.572,2.573
		c-1.395,0-2.453-0.841-2.5-2.609H167.188z"/>
	<rect x="173.524" y="53.048" class="st3" width="0.901" height="8.896"/>
	<polygon class="st3" points="176.974,61.943 176.974,53.048 178.368,53.048 180.459,60.633 182.408,53.048 183.813,53.048 
		183.813,61.943 182.997,61.943 182.997,53.878 180.893,61.943 180.051,61.943 177.792,53.878 177.792,61.943 	"/>
	<path class="st3" d="M187.217,53.048v6.491c0,0.517,0.072,0.974,0.445,1.334c0.3,0.301,0.757,0.397,1.202,0.397
		c0.445,0,0.901-0.096,1.214-0.397c0.373-0.36,0.445-0.817,0.445-1.334v-6.491h0.901V59.6c0,0.841-0.192,1.394-0.625,1.826
		c-0.421,0.433-1.058,0.673-1.923,0.673c-0.878,0-1.515-0.241-1.948-0.673c-0.421-0.433-0.613-0.986-0.613-1.826v-6.551H187.217z"/>
	<polygon class="st3" points="193.936,53.048 194.838,53.048 194.838,61.114 197.676,61.114 197.676,61.943 193.936,61.943 	"/>
	<path class="st3" d="M199.671,61.943h-0.926l2.537-8.895h0.89l2.572,8.895h-0.914l-0.757-2.632h-2.669L199.671,61.943z
		 M201.738,54.214l-1.094,4.28h2.188L201.738,54.214z"/>
	<polygon class="st3" points="206.788,53.878 204.984,53.878 204.984,53.048 209.493,53.048 209.493,53.878 207.689,53.878 
		207.689,61.943 206.788,61.943 	"/>
	<rect x="211.416" y="53.048" class="st3" width="0.901" height="8.896"/>
	<path class="st3" d="M214.482,57.483c0-2.609,1.106-4.591,3.234-4.591c2.139,0,3.233,1.983,3.233,4.604
		c0,2.285-0.902,4.604-3.233,4.604c-2.129,0-3.234-1.983-3.234-4.604V57.483z M215.408,57.508c0,2.428,0.878,3.774,2.308,3.774
		c1.43,0,2.32-1.346,2.32-3.786c0-2.44-0.89-3.786-2.32-3.786c-1.431,0-2.308,1.346-2.308,3.786V57.508z"/>
	<polygon class="st3" points="227.826,60.465 227.826,53.048 228.643,53.048 228.643,61.943 227.634,61.943 223.955,54.347 
		223.955,61.943 223.138,61.943 223.138,53.048 224.219,53.048 	"/>
	<rect x="230.546" y="60.669" class="st3" width="0.818" height="1.274"/>
	<rect x="157.958" y="60.669" class="st3" width="0.818" height="1.274"/>
	<polygon class="st3" points="109.62,53.878 107.816,53.878 107.816,53.048 112.324,53.048 112.324,53.878 110.521,53.878 
		110.521,61.943 109.62,61.943 	"/>
	<path class="st3" d="M114.248,53.048h1.695c1.323,0,1.863,0.228,2.2,0.528c0.577,0.469,0.926,1.215,0.926,2.152
		c0,0.553-0.096,1.13-0.397,1.611c-0.348,0.553-0.878,0.925-1.539,1.022l1.779,3.582h-1.01l-1.984-4.135c0.12,0,0.205,0,0.313-0.012
		c0.613-0.011,1.046-0.156,1.395-0.48c0.372-0.361,0.516-0.902,0.516-1.503c0-0.578-0.144-1.238-0.673-1.635
		c-0.385-0.289-0.998-0.3-1.551-0.3h-0.769v8.065h-0.901V53.048z"/>
	<path class="st3" d="M121.281,61.943h-0.926l2.537-8.895h0.89l2.572,8.895h-0.914l-0.757-2.632h-2.669L121.281,61.943z
		 M123.348,54.214l-1.094,4.28h2.188L123.348,54.214z"/>
	<rect x="128.037" y="53.048" class="st3" width="0.901" height="8.896"/>
	<polygon class="st3" points="136.176,60.465 136.176,53.048 136.994,53.048 136.994,61.943 135.983,61.943 132.306,54.347 
		132.306,61.943 131.488,61.943 131.488,53.048 132.57,53.048 	"/>
	<rect x="139.53" y="53.048" class="st3" width="0.901" height="8.896"/>
	<polygon class="st3" points="147.668,60.465 147.668,53.048 148.487,53.048 148.487,61.943 147.476,61.943 143.799,54.347 
		143.799,61.943 142.981,61.943 142.981,53.048 144.063,53.048 	"/>
	<path class="st3" d="M156.035,55.993c-0.012-0.42-0.156-0.973-0.396-1.37c-0.313-0.517-0.794-0.914-1.623-0.914
		c-1.454,0-2.428,1.298-2.428,3.786c0,2.645,1.046,3.786,2.428,3.786c0.746,0,1.371-0.312,1.744-1.045
		c0.325-0.65,0.384-1.31,0.384-2.02h-2.501v-0.818h3.427c0,0.397,0,0.878-0.025,1.311c-0.06,1.514-0.841,3.389-3.029,3.389
		c-2.284,0-3.354-1.947-3.354-4.604c0-2.765,1.286-4.604,3.354-4.604c1.864,0,2.825,1.43,2.921,3.101H156.035z"/>
</g>
</svg>